<?xml version="1.0" encoding="UTF-8"?>
<svg id="Vrstva_2" data-name="Vrstva 2" xmlns="http://www.w3.org/2000/svg" viewBox="0 0 57.03 57.8">
  <defs>
    <style>
      .cls-1 {
        fill: #e32322;
      }

      .cls-1, .cls-2, .cls-3, .cls-4, .cls-5, .cls-6, .cls-7 {
        stroke-width: 0px;
      }

      .cls-2 {
        fill: #fff;
      }

      .cls-3 {
        fill: #b15395;
      }

      .cls-4 {
        fill: #6ec5d7;
      }

      .cls-5 {
        fill: #324a96;
      }

      .cls-6 {
        fill: #f3e400;
      }

      .cls-7 {
        fill: #67ae24;
      }
    </style>
  </defs>
  <g id="Vrstva_1-2" data-name="Vrstva 1">
    <g>
      <polygon class="cls-7" points="28.51 3.44 28.51 2.4 29.52 2.4 29.52 1.04 30.18 1.04 30.18 3.44 28.51 3.44"/>
      <polygon class="cls-7" points="3.41 14 3.41 4.08 4.07 4.08 4.07 15.04 2.4 15.04 2.4 14 3.41 14"/>
      <polygon class="cls-1" points="1.67 1.68 1.01 1.68 1.01 0 29.52 0 29.52 1.04 1.67 1.04 1.67 1.68"/>
      <rect class="cls-6" x="2.4" y="4.08" width="1" height="9.91"/>
      <polygon class="cls-6" points="28.51 2.4 28.51 1.68 1.67 1.68 1.67 1.04 29.52 1.04 29.52 2.4 28.51 2.4"/>
      <rect class="cls-5" x="4.07" y="3.44" width="24.45" height=".64"/>
      <polygon class="cls-5" points="1.67 14.01 1.67 15.05 2.4 15.05 2.4 15.69 0 15.69 0 1.68 1.01 1.68 1.01 14.01 1.67 14.01"/>
      <polygon class="cls-4" points="3.41 2.4 28.51 2.4 28.51 3.44 4.07 3.44 4.07 4.08 3.41 4.08 3.41 2.4"/>
      <rect class="cls-4" x="1.67" y="13.99" width=".73" height="1.04"/>
      <rect class="cls-3" x="1.01" y="1.68" width=".66" height="12.32"/>
      <polygon class="cls-2" points="3.41 4.08 2.4 4.08 2.4 13.99 1.67 13.99 1.67 1.68 28.51 1.68 28.51 2.4 3.41 2.4 3.41 4.08"/>
    </g>
    <g>
      <polygon class="cls-1" points="53.58 43.69 54.62 43.69 54.62 42.68 55.99 42.68 55.99 42.02 53.58 42.02 53.58 43.69"/>
      <polygon class="cls-1" points="28.46 54.39 52.94 54.39 52.94 53.73 27.42 53.73 27.42 55.39 28.46 55.39 28.46 54.39"/>
      <polygon class="cls-7" points="55.34 56.13 55.34 56.79 57.03 56.79 57.03 42.68 55.99 42.68 55.98 56.13 55.34 56.13"/>
      <rect class="cls-6" x="28.47" y="54.39" width="24.47" height="1.01"/>
      <polygon class="cls-6" points="54.62 43.69 55.35 43.69 55.34 56.13 55.98 56.13 55.99 42.68 54.62 42.68 54.62 43.69"/>
      <rect class="cls-5" x="52.94" y="43.69" width=".64" height="10.03"/>
      <polygon class="cls-5" points="28.45 56.13 27.41 56.13 27.41 55.39 26.77 55.39 26.77 57.8 55.34 57.8 55.34 56.79 28.45 56.79 28.45 56.13"/>
      <polygon class="cls-3" points="54.62 54.39 54.62 43.69 53.58 43.69 53.58 53.73 52.94 53.73 52.94 54.39 54.62 54.39"/>
      <rect class="cls-3" x="27.42" y="55.39" width="1.05" height=".74"/>
      <rect class="cls-4" x="28.47" y="56.13" width="26.88" height=".66"/>
      <polygon class="cls-2" points="52.94 54.39 52.94 55.39 28.47 55.39 28.47 56.13 55.34 56.13 55.35 43.69 54.62 43.69 54.62 54.39 52.94 54.39"/>
    </g>
  </g>
</svg>